# xmcd
#
# Track frame offsets:
#       150
#       15915
#       27995
#       44715
#       60942
#       71060
#       81642
#       93572
#       109145
#       134602
#       144280
#       156602
#
# Disc length: 2251 seconds
#
# Revision: 4
# Processed by: cddbd v1.5.2PL0 Copyright (c) Steve Scherf et al.
# Submitted via: FreeDbEdit v0.1
#
DISCID=ab08c90c
DTITLE=Various Artist - A Country Christmas
DYEAR=1987
DGENRE=Christmas
TTITLE0=Vince Gill - What Child Is This
TTITLE1=Clint Black - Til Santa's Gone
TTITLE2=Willie Nelson - Silent Night
TTITLE3=Sawyer Brown - It Wasn't His Child
TTITLE4=John Schneider - Joy to the World
TTITLE5=Jeff Foxworthy - Red Neck 12 Days of Christmas
TTITLE6=Dwight Yoakam - Santa Claus Is Back in Town
TTITLE7=Oak Ridge Boys - It's Christmas Time Once Again
TTITLE8=Steve WAriner - Christmas Medley
TTITLE9=Johnny Tillotson - It's Not Christmas If You're Not Here
TTITLE10=John Denver - Jingle Bells
TTITLE11=Kenny Rogers - First Noel
EXTD=YEAR: 1987
EXTT0=
EXTT1=
EXTT2=
EXTT3=
EXTT4=
EXTT5=
EXTT6=
EXTT7=
EXTT8=
EXTT9=
EXTT10=
EXTT11=
PLAYORDER=
